<svg width="259" height="41" viewBox="0 0 259 41" fill="none" xmlns="http://www.w3.org/2000/svg">
<path d="M50.88 34V9.052H67.584V13.768H56.496V18.988H66.36V23.704H56.496V34H50.88ZM86.6528 33.352C85.7408 33.616 84.5648 33.856 83.1248 34.072C81.6848 34.312 80.1728 34.432 78.5888 34.432C76.9808 34.432 75.6368 34.216 74.5568 33.784C73.5008 33.352 72.6608 32.752 72.0368 31.984C71.4128 31.192 70.9688 30.256 70.7048 29.176C70.4408 28.096 70.3088 26.908 70.3088 25.612V15.064H75.6728V24.964C75.6728 26.692 75.9008 27.94 76.3568 28.708C76.8128 29.476 77.6648 29.86 78.9128 29.86C79.2968 29.86 79.7048 29.848 80.1368 29.824C80.5688 29.776 80.9528 29.728 81.2888 29.68V15.064H86.6528V33.352ZM91.688 15.712C92.6 15.448 93.776 15.208 95.216 14.992C96.656 14.752 98.168 14.632 99.752 14.632C101.36 14.632 102.692 14.848 103.748 15.28C104.828 15.688 105.68 16.276 106.304 17.044C106.928 17.812 107.372 18.724 107.636 19.78C107.9 20.836 108.032 22.012 108.032 23.308V34H102.668V23.956C102.668 22.228 102.44 21.004 101.984 20.284C101.528 19.564 100.676 19.204 99.428 19.204C99.044 19.204 98.636 19.228 98.204 19.276C97.772 19.3 97.388 19.336 97.052 19.384V34H91.688V15.712ZM117.459 24.388C117.459 26.044 117.831 27.376 118.575 28.384C119.319 29.392 120.423 29.896 121.887 29.896C122.367 29.896 122.811 29.884 123.219 29.86C123.627 29.812 123.963 29.764 124.227 29.716V19.96C123.891 19.744 123.447 19.564 122.895 19.42C122.367 19.276 121.827 19.204 121.275 19.204C118.731 19.204 117.459 20.932 117.459 24.388ZM129.591 33.388C129.111 33.532 128.559 33.676 127.935 33.82C127.311 33.94 126.651 34.048 125.955 34.144C125.283 34.24 124.587 34.312 123.867 34.36C123.171 34.432 122.499 34.468 121.851 34.468C120.291 34.468 118.899 34.24 117.675 33.784C116.451 33.328 115.419 32.68 114.579 31.84C113.739 30.976 113.091 29.944 112.635 28.744C112.203 27.52 111.987 26.152 111.987 24.64C111.987 23.104 112.179 21.724 112.563 20.5C112.947 19.252 113.499 18.196 114.219 17.332C114.939 16.468 115.815 15.808 116.847 15.352C117.903 14.896 119.103 14.668 120.447 14.668C121.191 14.668 121.851 14.74 122.427 14.884C123.027 15.028 123.627 15.232 124.227 15.496V6.928L129.591 6.064V33.388ZM143.622 9.052H149.238V34H143.622V9.052ZM165.057 23.956C165.057 22.228 164.829 21.004 164.373 20.284C163.941 19.564 163.185 19.204 162.105 19.204C161.769 19.204 161.421 19.228 161.061 19.276C160.701 19.3 160.353 19.336 160.017 19.384V34H154.653V15.712C155.109 15.592 155.637 15.472 156.237 15.352C156.861 15.208 157.509 15.088 158.181 14.992C158.877 14.872 159.585 14.788 160.305 14.74C161.025 14.668 161.733 14.632 162.429 14.632C163.797 14.632 164.901 14.812 165.741 15.172C166.605 15.508 167.313 15.916 167.865 16.396C168.633 15.844 169.509 15.412 170.493 15.1C171.501 14.788 172.425 14.632 173.265 14.632C174.777 14.632 176.013 14.848 176.973 15.28C177.957 15.688 178.737 16.276 179.313 17.044C179.889 17.812 180.285 18.724 180.501 19.78C180.717 20.836 180.825 22.012 180.825 23.308V34H175.461V23.956C175.461 22.228 175.233 21.004 174.777 20.284C174.345 19.564 173.589 19.204 172.509 19.204C172.221 19.204 171.813 19.276 171.285 19.42C170.781 19.564 170.361 19.744 170.025 19.96C170.193 20.512 170.301 21.1 170.349 21.724C170.397 22.324 170.421 22.972 170.421 23.668V34H165.057V23.956ZM197.828 24.676C197.828 23.02 197.456 21.7 196.712 20.716C195.968 19.708 194.864 19.204 193.4 19.204C192.92 19.204 192.476 19.228 192.068 19.276C191.66 19.3 191.324 19.336 191.06 19.384V29.068C191.396 29.284 191.828 29.464 192.356 29.608C192.908 29.752 193.46 29.824 194.012 29.824C196.556 29.824 197.828 28.108 197.828 24.676ZM203.3 24.532C203.3 25.996 203.12 27.328 202.76 28.528C202.4 29.728 201.872 30.76 201.176 31.624C200.48 32.488 199.616 33.16 198.584 33.64C197.552 34.12 196.364 34.36 195.02 34.36C194.276 34.36 193.58 34.288 192.932 34.144C192.284 34 191.66 33.796 191.06 33.532V40.66H185.696V15.712C186.176 15.568 186.728 15.436 187.352 15.316C187.976 15.172 188.624 15.052 189.296 14.956C189.992 14.86 190.688 14.788 191.384 14.74C192.104 14.668 192.788 14.632 193.436 14.632C194.996 14.632 196.388 14.872 197.612 15.352C198.836 15.808 199.868 16.468 200.708 17.332C201.548 18.172 202.184 19.204 202.616 20.428C203.072 21.652 203.3 23.02 203.3 24.532ZM214.658 30.256C215.186 30.256 215.69 30.244 216.17 30.22C216.65 30.196 217.034 30.16 217.322 30.112V26.044C217.106 25.996 216.782 25.948 216.35 25.9C215.918 25.852 215.522 25.828 215.162 25.828C214.658 25.828 214.178 25.864 213.722 25.936C213.29 25.984 212.906 26.092 212.57 26.26C212.234 26.428 211.97 26.656 211.778 26.944C211.586 27.232 211.49 27.592 211.49 28.024C211.49 28.864 211.766 29.452 212.318 29.788C212.894 30.1 213.674 30.256 214.658 30.256ZM214.226 14.56C215.81 14.56 217.13 14.74 218.186 15.1C219.242 15.46 220.082 15.976 220.706 16.648C221.354 17.32 221.81 18.136 222.074 19.096C222.338 20.056 222.47 21.124 222.47 22.3V33.46C221.702 33.628 220.634 33.82 219.266 34.036C217.898 34.276 216.242 34.396 214.298 34.396C213.074 34.396 211.958 34.288 210.95 34.072C209.966 33.856 209.114 33.508 208.394 33.028C207.674 32.524 207.122 31.876 206.738 31.084C206.354 30.292 206.162 29.32 206.162 28.168C206.162 27.064 206.378 26.128 206.81 25.36C207.266 24.592 207.866 23.98 208.61 23.524C209.354 23.068 210.206 22.744 211.166 22.552C212.126 22.336 213.122 22.228 214.154 22.228C214.85 22.228 215.462 22.264 215.99 22.336C216.542 22.384 216.986 22.456 217.322 22.552V22.048C217.322 21.136 217.046 20.404 216.494 19.852C215.942 19.3 214.982 19.024 213.614 19.024C212.702 19.024 211.802 19.096 210.914 19.24C210.026 19.36 209.258 19.54 208.61 19.78L207.926 15.46C208.238 15.364 208.622 15.268 209.078 15.172C209.558 15.052 210.074 14.956 210.626 14.884C211.178 14.788 211.754 14.716 212.354 14.668C212.978 14.596 213.602 14.56 214.226 14.56ZM226.421 24.532C226.421 23.164 226.637 21.88 227.069 20.68C227.525 19.456 228.173 18.4 229.013 17.512C229.853 16.6 230.873 15.88 232.073 15.352C233.273 14.824 234.641 14.56 236.177 14.56C237.185 14.56 238.109 14.656 238.949 14.848C239.789 15.016 240.605 15.268 241.397 15.604L240.281 19.888C239.777 19.696 239.225 19.528 238.625 19.384C238.025 19.24 237.353 19.168 236.609 19.168C235.025 19.168 233.837 19.66 233.045 20.644C232.277 21.628 231.893 22.924 231.893 24.532C231.893 26.236 232.253 27.556 232.973 28.492C233.717 29.428 235.001 29.896 236.825 29.896C237.473 29.896 238.169 29.836 238.913 29.716C239.657 29.596 240.341 29.404 240.965 29.14L241.721 33.532C241.097 33.796 240.317 34.024 239.381 34.216C238.445 34.408 237.413 34.504 236.285 34.504C234.557 34.504 233.069 34.252 231.821 33.748C230.573 33.22 229.541 32.512 228.725 31.624C227.933 30.736 227.345 29.692 226.961 28.492C226.601 27.268 226.421 25.948 226.421 24.532ZM245.141 10.348L250.505 9.484V15.064H256.949V19.528H250.505V26.188C250.505 27.316 250.697 28.216 251.081 28.888C251.489 29.56 252.293 29.896 253.493 29.896C254.069 29.896 254.657 29.848 255.257 29.752C255.881 29.632 256.445 29.476 256.949 29.284L257.705 33.46C257.057 33.724 256.337 33.952 255.545 34.144C254.753 34.336 253.781 34.432 252.629 34.432C251.165 34.432 249.953 34.24 248.993 33.856C248.033 33.448 247.265 32.896 246.689 32.2C246.113 31.48 245.705 30.616 245.465 29.608C245.249 28.6 245.141 27.484 245.141 26.26V10.348Z" fill="#16A34A"/>
<path fill-rule="evenodd" clip-rule="evenodd" d="M3.00216 3.00216C-2.44379e-07 6.00431 0 10.8362 0 20.5C0 30.1637 -2.44379e-07 34.9958 3.00216 37.9978C6.00431 41 10.8362 41 20.5 41C30.1637 41 34.9958 41 37.9978 37.9978C41 34.9958 41 30.1637 41 20.5C41 10.8362 41 6.00431 37.9978 3.00216C34.9958 -2.44379e-07 30.1637 0 20.5 0C10.8362 0 6.00431 -2.44379e-07 3.00216 3.00216ZM30.75 21.0125C31.5991 21.0125 32.2875 21.7009 32.2875 22.55V32.8C32.2875 33.6491 31.5991 34.3375 30.75 34.3375C29.9009 34.3375 29.2125 33.6491 29.2125 32.8V22.55C29.2125 21.7009 29.9009 21.0125 30.75 21.0125ZM22.0375 8.2C22.0375 7.35087 21.3491 6.6625 20.5 6.6625C19.6509 6.6625 18.9625 7.35087 18.9625 8.2V32.8C18.9625 33.6491 19.6509 34.3375 20.5 34.3375C21.3491 34.3375 22.0375 33.6491 22.0375 32.8V8.2ZM10.25 12.8125C11.0991 12.8125 11.7875 13.5009 11.7875 14.35V32.8C11.7875 33.6491 11.0991 34.3375 10.25 34.3375C9.40087 34.3375 8.7125 33.6491 8.7125 32.8V14.35C8.7125 13.5009 9.40087 12.8125 10.25 12.8125Z" fill="#16A34A"/>
</svg>
